<?xml version="1.0" encoding="UTF-8" standalone="no"?>
<!-- Created with Inkscape (http://www.inkscape.org/) -->

<svg
   width="60.854168mm"
   height="60.858894mm"
   viewBox="0 0 229.99999 230.01787"
   version="1.1"
   id="svg982"
   xmlns="http://www.w3.org/2000/svg"
   xmlns:svg="http://www.w3.org/2000/svg">
  <defs
     id="defs979" />
  <g
     id="layer1"
     transform="translate(194.16782,-38.687583)">
    <g
       id="g1899"
       transform="translate(228.71951,-183.42828)">
      <g
         transform="matrix(0.9070259,0,0,0.90709638,-447.03236,196.01235)"
         id="g59103"
         style="clip-rule:evenodd;fill-rule:evenodd;stroke-linejoin:round;stroke-miterlimit:2">
        <path
           d="m 280.196,92.171 c 0,-34.988 -28.406,-63.394 -63.394,-63.394 H 90.014 c -34.988,0 -63.394,28.406 -63.394,63.394 v 126.788 c 0,34.988 28.406,63.394 63.394,63.394 h 126.788 c 34.988,0 63.394,-28.406 63.394,-63.394 z"
           style="fill:#00a8ff"
           id="path59101" />
      </g>
      <path
         d="m -366.51975,368.14189 q -8.65591,0 -15.98939,-2.64486 -7.33348,-2.76508 -12.74343,-6.49193 l 4.5684,-6.49194 q 5.04928,3.60663 11.06033,5.77061 6.13127,2.16398 14.3063,2.16398 7.4537,0 11.06033,-2.64486 3.72685,-2.76508 3.72685,-6.49194 0,-1.68309 -0.6011,-3.12574 -0.60111,-1.44265 -2.64486,-2.76508 -1.92354,-1.32244 -5.53017,-2.52465 -3.60663,-1.20221 -9.49746,-2.40442 -11.42099,-2.40442 -17.1916,-6.37171 -5.65039,-4.08751 -5.65039,-10.69967 0,-3.48641 1.56287,-6.49193 1.56288,-3.12575 4.5684,-5.28973 3.12575,-2.28419 7.57393,-3.4864 4.56839,-1.32244 10.57943,-1.32244 6.73239,0 12.98388,2.2842 6.25149,2.16398 10.57945,5.16951 l -4.80885,6.37171 q -4.08751,-2.76508 -9.01657,-4.44818 -4.92906,-1.68309 -10.57945,-1.68309 -7.45371,0 -10.45923,2.52464 -3.00552,2.52464 -3.00552,5.89083 0,3.84707 3.96729,5.89083 3.96729,1.92353 12.98388,3.84707 7.33347,1.56287 12.02209,3.36619 4.68862,1.68309 7.33348,3.84707 2.76509,2.16398 3.72686,4.80884 1.08199,2.64486 1.08199,6.01105 0,3.60663 -1.6831,6.73238 -1.68309,3.12574 -5.04929,5.53016 -3.24597,2.40442 -8.17502,3.72685 -4.80885,1.44265 -11.06033,1.44265 z"
         id="path59115"
         style="font-size:120.221px;line-height:1.25;font-family:'Source Code Pro';-inkscape-font-specification:'Source Code Pro, Normal';letter-spacing:-11.7591px;word-spacing:-0.308067px;clip-rule:evenodd;fill:#f6f6f6;fill-rule:evenodd;stroke:#f6f6f6;stroke-width:4.351;stroke-linejoin:round;stroke-miterlimit:2" />
      <path
         d="m -310.61657,366.69924 v -50.3726 h -17.41578 v -8.0548 h 27.2739 v 58.4274 z m 3.84707,-70.68995 c -2.24413,0 -4.12759,-0.68125 -5.65039,-2.04375 -1.5228,-1.44265 -2.2842,-3.32612 -2.2842,-5.65039 0,-2.32427 0.7614,-4.16766 2.2842,-5.53017 1.5228,-1.44265 3.40626,-2.16397 5.65039,-2.16397 2.24412,0 4.12759,0.72132 5.65038,2.16397 1.5228,1.36251 2.2842,3.2059 2.2842,5.53017 0,2.32427 -0.7614,4.20774 -2.2842,5.65039 -1.52279,1.3625 -3.40626,2.04375 -5.65038,2.04375 z"
         id="path59117"
         style="font-size:120.221px;line-height:1.25;font-family:'Source Code Pro';-inkscape-font-specification:'Source Code Pro, Normal';letter-spacing:-11.7591px;word-spacing:-0.308067px;clip-rule:evenodd;fill:#f6f6f6;fill-rule:evenodd;stroke:#f6f6f6;stroke-width:4.351;stroke-linejoin:round;stroke-miterlimit:2" />
      <path
         d="m -255.57585,393.62875 q -12.86365,0 -19.95669,-4.20774 -6.97282,-4.20773 -6.97282,-12.0221 0,-3.48641 2.40442,-6.8526 2.52464,-3.36618 7.21326,-6.13127 v -0.48088 q -2.40442,-1.32243 -4.20773,-3.60663 -1.80332,-2.2842 -1.80332,-6.01105 0,-2.76508 1.80332,-5.65039 1.80331,-3.00552 5.1695,-5.28972 v -0.48089 q -3.00552,-2.28419 -5.1695,-6.01105 -2.04376,-3.84707 -2.04376,-9.13679 0,-4.80884 1.80332,-8.65591 1.92353,-3.84708 5.04928,-6.49194 3.12574,-2.76508 7.21326,-4.20773 4.20773,-1.56288 8.89635,-1.56288 4.80884,0 8.65591,1.44266 h 24.16443 v 8.0548 h -15.14785 q 2.04376,2.04376 3.48641,5.16951 1.44265,3.12574 1.44265,6.61215 0,4.68862 -1.80331,8.41547 -1.6831,3.72685 -4.80884,6.37171 -3.00553,2.52465 -7.21326,3.9673 -4.08752,1.32243 -8.77614,1.32243 -2.2842,0 -4.92906,-0.48089 -2.52464,-0.6011 -4.92906,-1.68309 -4.5684,2.8853 -4.5684,6.73238 0,3.48641 3.12575,5.1695 3.24597,1.56287 9.01657,1.56287 h 13.10409 q 11.30078,0 16.71072,3.12575 5.53017,3.12574 5.53017,10.57945 0,4.08751 -2.2842,7.81436 -2.2842,3.72685 -6.49194,6.49194 -4.20773,2.76508 -10.21878,4.44817 -6.01105,1.6831 -13.46475,1.6831 z m -0.60111,-52.0557 q 5.65039,0 9.49746,-3.72685 3.96729,-3.72685 3.96729,-10.09856 0,-3.00553 -1.08198,-5.53017 -1.08199,-2.52464 -2.88531,-4.32795 -1.80331,-1.80332 -4.32795,-2.76509 -2.40442,-1.08199 -5.16951,-1.08199 -2.76508,0 -5.28972,1.08199 -2.40442,0.96177 -4.20774,2.76509 -1.80331,1.80331 -2.8853,4.32795 -1.08199,2.52464 -1.08199,5.53017 0,6.37171 3.96729,10.09856 3.9673,3.72685 9.49746,3.72685 z m 1.32243,44.84244 q 5.04929,0 9.1368,-0.96177 4.08751,-0.96177 6.97282,-2.64486 2.8853,-1.56288 4.32795,-3.72685 1.56288,-2.04376 1.56288,-4.32796 0,-4.20774 -3.36619,-5.65039 -3.24597,-1.44265 -9.97834,-1.44265 h -11.421 q -2.52464,0 -4.80884,-0.24044 -2.16398,-0.12022 -4.08751,-0.72133 -4.20774,2.2842 -5.89083,4.68862 -1.56288,2.52464 -1.56288,5.04928 0,4.5684 4.80884,7.21326 4.92907,2.76509 14.3063,2.76509 z"
         id="path59119"
         style="font-size:120.221px;line-height:1.25;font-family:'Source Code Pro';-inkscape-font-specification:'Source Code Pro, Normal';letter-spacing:-11.7591px;word-spacing:-0.308067px;clip-rule:evenodd;fill:#f6f6f6;fill-rule:evenodd;stroke:#f6f6f6;stroke-width:4.351;stroke-linejoin:round;stroke-miterlimit:2" />
    </g>
  </g>
</svg>
