<?xml version="1.0" encoding="UTF-8" standalone="no"?>
<!-- Created with Inkscape (http://www.inkscape.org/) -->

<svg
   width="90"
   height="41"
   viewBox="0 0 90.000001 41"
   version="1.1"
   id="svg33529"
   sodipodi:docname="sigchain-dark.svg"
   inkscape:dataloss="true"
   xmlns:inkscape="http://www.inkscape.org/namespaces/inkscape"
   xmlns:sodipodi="http://sodipodi.sourceforge.net/DTD/sodipodi-0.dtd"
   xmlns="http://www.w3.org/2000/svg"
   xmlns:svg="http://www.w3.org/2000/svg">
  <sodipodi:namedview
     id="namedview1125"
     pagecolor="#ffffff"
     bordercolor="#666666"
     borderopacity="1.0"
     inkscape:pageshadow="2"
     inkscape:pageopacity="0.0"
     inkscape:pagecheckerboard="0"
     showgrid="true"
     inkscape:zoom="2.0491803"
     inkscape:cx="190.564"
     inkscape:cy="51.24"
     inkscape:window-width="1587"
     inkscape:window-height="915"
     inkscape:window-x="0"
     inkscape:window-y="25"
     inkscape:window-maximized="0"
     inkscape:current-layer="svg33529"
     inkscape:snap-text-baseline="true"
     fit-margin-top="1"
     fit-margin-left="1"
     fit-margin-right="1"
     fit-margin-bottom="1">
    <inkscape:grid
       type="xygrid"
       id="grid25030"
       originx="12.07789"
       originy="5.8848072" />
  </sodipodi:namedview>
  <defs
     id="defs33526" />
  <path
     id="rect33328"
     style="fill:#00a5fc;fill-rule:evenodd;stroke-width:0.993359"
     d="m 8.07789,0.8848072 h 26.489583 c 3.668815,0 6.6224,2.9535977 6.6224,6.6224016 V 33.996803 c 0,3.668803 -2.953585,6.622389 -6.6224,6.622389 H 8.07789 c -3.6688166,0 -6.6224019,-2.953586 -6.6224019,-6.622389 V 7.5072088 c 0,-3.6688039 2.9535853,-6.6224016 6.6224019,-6.6224016 z" />
  <g
     aria-label="sig"
     id="text33332"
     style="font-size:17.6389px;line-height:1.25;font-family:'Source Code Pro';-inkscape-font-specification:'Source Code Pro, Normal';letter-spacing:-1.12713px;fill:#ffffff;stroke-width:0.264583"
     transform="matrix(1.2514767,0,0,1.2514767,299.00789,-151.31514)">
    <path
       d="m -231.84925,142.13418 q -1.27,0 -2.34597,-0.38805 -1.07597,-0.4057 -1.86972,-0.9525 l 0.67027,-0.9525 q 0.74084,0.52916 1.62278,0.84666 0.89959,0.3175 2.09903,0.3175 1.09361,0 1.62278,-0.38805 0.54681,-0.4057 0.54681,-0.9525 0,-0.24695 -0.0882,-0.45861 -0.0882,-0.21167 -0.38805,-0.4057 -0.28223,-0.19403 -0.81139,-0.37042 -0.52917,-0.17639 -1.39348,-0.35277 -1.67569,-0.35278 -2.52236,-0.93487 -0.82903,-0.59972 -0.82903,-1.56986 0,-0.51153 0.22931,-0.9525 0.2293,-0.45861 0.67028,-0.77611 0.45861,-0.33514 1.11125,-0.51153 0.67028,-0.19403 1.55222,-0.19403 0.98778,0 1.905,0.33514 0.91722,0.3175 1.55222,0.75848 l -0.70555,0.93486 q -0.59972,-0.4057 -1.32292,-0.65264 -0.72319,-0.24695 -1.55222,-0.24695 -1.09361,0 -1.53459,0.37042 -0.44097,0.37042 -0.44097,0.86431 0,0.56444 0.58208,0.8643 0.58209,0.28222 1.90501,0.56445 1.07597,0.2293 1.76389,0.49389 0.68791,0.24694 1.07597,0.56444 0.40569,0.3175 0.54681,0.70556 0.15875,0.38805 0.15875,0.88194 0,0.52917 -0.24695,0.98778 -0.24694,0.45861 -0.74083,0.81139 -0.47625,0.35278 -1.19945,0.54681 -0.70555,0.21166 -1.62278,0.21166 z"
       id="path33365" />
    <path
       d="m -222.29409,141.92252 v -7.3907 h -3.9864 v -1.18181 h 5.43279 v 8.57251 z m 0.56444,-10.37168 q -0.49389,0 -0.82903,-0.29986 -0.33514,-0.3175 -0.33514,-0.82903 0,-0.51153 0.33514,-0.81139 0.33514,-0.3175 0.82903,-0.3175 0.49389,0 0.82903,0.3175 0.33514,0.29986 0.33514,0.81139 0,0.51153 -0.33514,0.82903 -0.33514,0.29986 -0.82903,0.29986 z"
       id="path33367" />
    <path
       d="m -213.19755,145.87363 q -1.88736,0 -2.92806,-0.61736 -1.02306,-0.61736 -1.02306,-1.76389 0,-0.51153 0.35278,-1.00542 0.37042,-0.49389 1.05834,-0.89958 v -0.0706 q -0.35278,-0.19403 -0.61737,-0.52917 -0.26458,-0.33513 -0.26458,-0.88194 0,-0.4057 0.26458,-0.82903 0.26459,-0.44097 0.75848,-0.77611 v -0.0706 q -0.44098,-0.33514 -0.75848,-0.88194 -0.29986,-0.56445 -0.29986,-1.34056 0,-0.70555 0.26459,-1.27 0.28222,-0.56444 0.74083,-0.9525 0.45861,-0.40569 1.05833,-0.61736 0.61737,-0.22931 1.30528,-0.22931 0.70556,0 1.27,0.21167 h 3.54542 v 1.18181 h -2.2225 q 0.29986,0.29986 0.51153,0.75847 0.21167,0.45861 0.21167,0.97014 0,0.68792 -0.26459,1.23472 -0.24694,0.54681 -0.70555,0.93486 -0.44098,0.37042 -1.05834,0.58209 -0.59972,0.19403 -1.28764,0.19403 -0.33514,0 -0.72319,-0.0706 -0.37042,-0.0882 -0.7232,-0.24695 -0.67027,0.42334 -0.67027,0.98778 0,0.51153 0.45861,0.75848 0.47625,0.2293 1.32291,0.2293 h 1.92264 q 1.65806,0 2.45181,0.45861 0.81139,0.45861 0.81139,1.55223 0,0.59972 -0.33514,1.14653 -0.33514,0.5468 -0.9525,0.9525 -0.61736,0.40569 -1.49931,0.65264 -0.88194,0.24694 -1.97555,0.24694 z m -0.0882,-7.63764 q 0.82903,0 1.39348,-0.54681 0.58208,-0.54681 0.58208,-1.48167 0,-0.44097 -0.15875,-0.81139 -0.15875,-0.37041 -0.42333,-0.635 -0.26459,-0.26458 -0.635,-0.40569 -0.35278,-0.15875 -0.75848,-0.15875 -0.40569,0 -0.77611,0.15875 -0.35278,0.14111 -0.61736,0.40569 -0.26458,0.26459 -0.42333,0.635 -0.15875,0.37042 -0.15875,0.81139 0,0.93486 0.58208,1.48167 0.58208,0.54681 1.39347,0.54681 z m 0.19403,6.57931 q 0.74084,0 1.34056,-0.14112 0.59972,-0.14111 1.02305,-0.38805 0.42334,-0.22931 0.635,-0.54681 0.22931,-0.29986 0.22931,-0.635 0,-0.61736 -0.49389,-0.82903 -0.47625,-0.21166 -1.46403,-0.21166 h -1.67569 q -0.37042,0 -0.70556,-0.0353 -0.3175,-0.0176 -0.59972,-0.10583 -0.61736,0.33513 -0.86431,0.68791 -0.2293,0.37042 -0.2293,0.74084 0,0.67028 0.70555,1.05833 0.7232,0.4057 2.09903,0.4057 z"
       id="path33369" />
  </g>
  <text
     xml:space="preserve"
     style="font-style:normal;font-variant:normal;font-weight:normal;font-stretch:normal;font-size:13.2448px;line-height:1.25;font-family:'Source Code Pro';-inkscape-font-specification:'Source Code Pro';fill:#000000;fill-opacity:1;stroke:none;stroke-width:0.33112"
     x="41.06551"
     y="14.244795"
     id="text9076"><tspan
       sodipodi:role="line"
       id="tspan9074"
       style="font-style:normal;font-variant:normal;font-weight:normal;font-stretch:normal;font-family:'Source Code Pro';-inkscape-font-specification:'Source Code Pro';stroke-width:0.33112"
       x="41.06551"
       y="14.244795">ledger</tspan></text>
  <path
     id="rect33338"
     style="fill:#00a5fc;fill-rule:evenodd;stroke-width:0.993359"
     d="m 87.422287,12.589212 h 1.655603 v 1.655591 h -1.655603 z" />
</svg>
