<?xml version="1.0" encoding="UTF-8" standalone="no"?>
<!DOCTYPE svg PUBLIC "-//W3C//DTD SVG 1.1//EN" "http://www.w3.org/Graphics/SVG/1.1/DTD/svg11.dtd">
<svg width="100%" height="100%" viewBox="0 0 453 230" version="1.1" xmlns="http://www.w3.org/2000/svg" xmlns:xlink="http://www.w3.org/1999/xlink" xml:space="preserve" xmlns:serif="http://www.serif.com/" style="fill-rule:evenodd;clip-rule:evenodd;stroke-linejoin:round;stroke-miterlimit:2;">
    <g id="Artboard1" transform="matrix(1,0,0,1,-5,-35.0186)">
        <rect x="5" y="35.019" width="452.147" height="229.963" style="fill:none;"/>
        <clipPath id="_clip1">
            <rect x="5" y="35.019" width="452.147" height="229.963"/>
        </clipPath>
        <g clip-path="url(#_clip1)">
            <g transform="matrix(0.906878,0,0,0.906878,-19.1408,8.94014)">
                <path d="M280.196,92.171C280.196,57.183 251.79,28.777 216.802,28.777L90.014,28.777C55.026,28.777 26.62,57.183 26.62,92.171L26.62,218.959C26.62,253.947 55.026,282.353 90.014,282.353L216.802,282.353C251.79,282.353 280.196,253.947 280.196,218.959L280.196,92.171Z" style="fill:rgb(0,168,255);"/>
            </g>
            <g transform="matrix(1,0,0,1,-86.2958,51.8286)">
                <g transform="matrix(141.667,0,0,141.667,93.1564,133.04)">
                    <path d="M0.31,0.012C0.262,0.012 0.218,0.005 0.177,-0.011C0.136,-0.025 0.101,-0.043 0.071,-0.064L0.109,-0.118C0.137,-0.098 0.168,-0.082 0.202,-0.07C0.235,-0.058 0.275,-0.052 0.32,-0.052C0.361,-0.052 0.392,-0.059 0.413,-0.075C0.433,-0.09 0.443,-0.107 0.443,-0.128C0.443,-0.137 0.441,-0.146 0.438,-0.154C0.435,-0.162 0.428,-0.17 0.417,-0.177C0.405,-0.184 0.39,-0.191 0.37,-0.198C0.35,-0.205 0.324,-0.211 0.291,-0.218C0.228,-0.231 0.18,-0.249 0.149,-0.272C0.117,-0.294 0.101,-0.323 0.101,-0.36C0.101,-0.379 0.105,-0.398 0.114,-0.415C0.123,-0.432 0.135,-0.446 0.153,-0.459C0.169,-0.471 0.191,-0.481 0.216,-0.488C0.241,-0.495 0.27,-0.498 0.303,-0.498C0.34,-0.498 0.376,-0.492 0.411,-0.48C0.446,-0.467 0.475,-0.453 0.499,-0.436L0.459,-0.383C0.436,-0.398 0.411,-0.411 0.384,-0.42C0.357,-0.429 0.327,-0.434 0.296,-0.434C0.255,-0.434 0.226,-0.427 0.209,-0.413C0.192,-0.399 0.184,-0.383 0.184,-0.364C0.184,-0.343 0.195,-0.327 0.217,-0.316C0.239,-0.305 0.275,-0.294 0.325,-0.283C0.366,-0.274 0.399,-0.265 0.425,-0.256C0.451,-0.246 0.472,-0.235 0.487,-0.223C0.501,-0.211 0.512,-0.198 0.518,-0.183C0.523,-0.168 0.526,-0.152 0.526,-0.133C0.526,-0.113 0.521,-0.094 0.512,-0.077C0.503,-0.06 0.489,-0.044 0.471,-0.031C0.452,-0.018 0.43,-0.007 0.403,0.001C0.376,0.008 0.345,0.012 0.31,0.012Z" style="fill:rgb(246,246,246);fill-rule:nonzero;"/>
                </g>
                <g transform="matrix(141.667,0,0,141.667,161.156,133.04)">
                    <path d="M0.316,-0L0.316,-0.419L0.09,-0.419L0.09,-0.486L0.398,-0.486L0.398,-0L0.316,-0ZM0.348,-0.588C0.329,-0.588 0.314,-0.594 0.301,-0.606C0.288,-0.617 0.282,-0.633 0.282,-0.652C0.282,-0.671 0.288,-0.687 0.301,-0.699C0.314,-0.71 0.329,-0.716 0.348,-0.716C0.367,-0.716 0.382,-0.71 0.395,-0.699C0.408,-0.687 0.414,-0.671 0.414,-0.652C0.414,-0.633 0.408,-0.617 0.395,-0.606C0.382,-0.594 0.367,-0.588 0.348,-0.588Z" style="fill:rgb(246,246,246);fill-rule:nonzero;"/>
                </g>
                <g transform="matrix(141.667,0,0,141.667,229.156,133.04)">
                    <path d="M0.296,0.224C0.225,0.224 0.169,0.212 0.131,0.189C0.092,0.166 0.072,0.132 0.072,0.089C0.072,0.07 0.079,0.051 0.093,0.032C0.106,0.013 0.126,-0.004 0.152,-0.019L0.152,-0.023C0.139,-0.03 0.127,-0.04 0.117,-0.053C0.107,-0.066 0.102,-0.082 0.102,-0.103C0.102,-0.118 0.107,-0.134 0.117,-0.151C0.127,-0.167 0.141,-0.181 0.16,-0.194L0.16,-0.198C0.143,-0.211 0.129,-0.228 0.118,-0.249C0.106,-0.27 0.1,-0.295 0.1,-0.324C0.1,-0.351 0.105,-0.375 0.116,-0.396C0.126,-0.417 0.14,-0.436 0.157,-0.451C0.174,-0.466 0.195,-0.477 0.218,-0.486C0.241,-0.494 0.265,-0.498 0.291,-0.498C0.318,-0.498 0.342,-0.494 0.363,-0.486L0.564,-0.486L0.564,-0.419L0.438,-0.419C0.449,-0.408 0.459,-0.393 0.467,-0.376C0.475,-0.359 0.479,-0.34 0.479,-0.321C0.479,-0.295 0.474,-0.272 0.465,-0.251C0.455,-0.23 0.442,-0.213 0.425,-0.199C0.408,-0.184 0.388,-0.173 0.365,-0.166C0.341,-0.158 0.317,-0.154 0.291,-0.154C0.278,-0.154 0.265,-0.156 0.251,-0.159C0.236,-0.162 0.222,-0.166 0.209,-0.172C0.184,-0.156 0.171,-0.137 0.171,-0.116C0.171,-0.097 0.18,-0.083 0.198,-0.074C0.215,-0.065 0.24,-0.06 0.272,-0.06L0.381,-0.06C0.444,-0.06 0.49,-0.051 0.521,-0.034C0.551,-0.017 0.566,0.013 0.566,0.054C0.566,0.077 0.56,0.098 0.547,0.119C0.534,0.14 0.516,0.158 0.493,0.173C0.47,0.188 0.441,0.201 0.408,0.21C0.375,0.219 0.337,0.224 0.296,0.224ZM0.291,-0.209C0.322,-0.209 0.349,-0.219 0.371,-0.24C0.392,-0.261 0.403,-0.289 0.403,-0.324C0.403,-0.341 0.4,-0.356 0.394,-0.37C0.388,-0.384 0.38,-0.396 0.37,-0.406C0.36,-0.416 0.348,-0.424 0.335,-0.43C0.321,-0.435 0.306,-0.438 0.291,-0.438C0.276,-0.438 0.261,-0.435 0.248,-0.43C0.234,-0.424 0.222,-0.416 0.212,-0.406C0.202,-0.396 0.194,-0.384 0.188,-0.37C0.182,-0.356 0.179,-0.341 0.179,-0.324C0.179,-0.289 0.19,-0.261 0.212,-0.24C0.234,-0.219 0.26,-0.209 0.291,-0.209ZM0.302,0.164C0.33,0.164 0.355,0.161 0.378,0.156C0.401,0.151 0.42,0.143 0.436,0.135C0.452,0.126 0.464,0.115 0.473,0.104C0.481,0.092 0.485,0.08 0.485,0.067C0.485,0.044 0.476,0.028 0.458,0.02C0.439,0.012 0.411,0.008 0.374,0.008L0.279,0.008C0.265,0.008 0.252,0.008 0.24,0.007C0.227,0.006 0.216,0.003 0.205,-0C0.182,0.013 0.166,0.026 0.157,0.04C0.148,0.053 0.143,0.067 0.143,0.081C0.143,0.106 0.157,0.127 0.184,0.142C0.211,0.157 0.25,0.164 0.302,0.164Z" style="fill:rgb(246,246,246);fill-rule:nonzero;"/>
                </g>
            </g>
            <g transform="matrix(1,0,0,1,142.223,-20.2714)">
                <g transform="matrix(83.3333,0,0,83.3333,93.1564,133.04)">
                    <path d="M0.346,0.012C0.308,0.012 0.273,0.006 0.241,-0.005C0.208,-0.016 0.18,-0.033 0.156,-0.055C0.132,-0.076 0.113,-0.103 0.1,-0.135C0.087,-0.166 0.08,-0.202 0.08,-0.242C0.08,-0.283 0.087,-0.319 0.102,-0.351C0.116,-0.382 0.135,-0.409 0.16,-0.431C0.185,-0.453 0.214,-0.47 0.247,-0.481C0.28,-0.492 0.314,-0.498 0.351,-0.498C0.391,-0.498 0.426,-0.491 0.455,-0.477C0.484,-0.463 0.508,-0.446 0.528,-0.427L0.487,-0.374C0.467,-0.391 0.446,-0.405 0.425,-0.415C0.403,-0.425 0.379,-0.43 0.354,-0.43C0.326,-0.43 0.3,-0.426 0.277,-0.417C0.254,-0.408 0.234,-0.395 0.218,-0.378C0.201,-0.361 0.188,-0.341 0.179,-0.319C0.17,-0.296 0.165,-0.27 0.165,-0.242C0.165,-0.214 0.169,-0.189 0.179,-0.166C0.188,-0.143 0.2,-0.124 0.217,-0.108C0.233,-0.091 0.253,-0.079 0.276,-0.07C0.299,-0.061 0.324,-0.056 0.352,-0.056C0.382,-0.056 0.409,-0.062 0.435,-0.074C0.46,-0.085 0.482,-0.1 0.502,-0.117L0.539,-0.064C0.512,-0.04 0.482,-0.021 0.449,-0.008C0.416,0.005 0.382,0.012 0.346,0.012Z" style="fill:white;fill-rule:nonzero;"/>
                </g>
                <g transform="matrix(83.3333,0,0,83.3333,133.156,133.04)">
                    <path d="M0.093,-0L0.093,-0.712L0.175,-0.712L0.175,-0.518L0.17,-0.403L0.173,-0.403C0.198,-0.43 0.226,-0.453 0.255,-0.471C0.284,-0.489 0.317,-0.498 0.355,-0.498C0.413,-0.498 0.456,-0.482 0.483,-0.449C0.509,-0.416 0.523,-0.367 0.523,-0.302L0.523,-0L0.441,-0L0.441,-0.291C0.441,-0.337 0.432,-0.371 0.415,-0.394C0.398,-0.416 0.369,-0.427 0.329,-0.427C0.314,-0.427 0.301,-0.425 0.289,-0.422C0.276,-0.418 0.264,-0.412 0.252,-0.405C0.24,-0.398 0.228,-0.389 0.215,-0.378C0.202,-0.367 0.189,-0.354 0.175,-0.339L0.175,-0L0.093,-0Z" style="fill:white;fill-rule:nonzero;"/>
                </g>
                <g transform="matrix(83.3333,0,0,83.3333,173.156,133.04)">
                    <path d="M0.246,0.012C0.223,0.012 0.202,0.009 0.182,0.003C0.162,-0.004 0.145,-0.013 0.13,-0.025C0.115,-0.036 0.103,-0.051 0.094,-0.068C0.085,-0.085 0.081,-0.104 0.081,-0.126C0.081,-0.153 0.088,-0.177 0.101,-0.198C0.114,-0.218 0.134,-0.235 0.163,-0.25C0.191,-0.265 0.227,-0.277 0.272,-0.286C0.317,-0.295 0.37,-0.303 0.433,-0.308C0.432,-0.325 0.43,-0.34 0.425,-0.355C0.42,-0.37 0.413,-0.383 0.403,-0.394C0.393,-0.405 0.38,-0.413 0.364,-0.42C0.347,-0.427 0.327,-0.43 0.304,-0.43C0.272,-0.43 0.241,-0.424 0.212,-0.412C0.183,-0.399 0.157,-0.386 0.134,-0.372L0.102,-0.428C0.114,-0.436 0.128,-0.444 0.145,-0.453C0.161,-0.461 0.178,-0.468 0.197,-0.475C0.215,-0.482 0.234,-0.487 0.255,-0.492C0.276,-0.496 0.297,-0.498 0.318,-0.498C0.385,-0.498 0.434,-0.48 0.467,-0.444C0.499,-0.407 0.515,-0.359 0.515,-0.298L0.515,-0L0.448,-0L0.441,-0.066L0.438,-0.066C0.411,-0.045 0.381,-0.026 0.348,-0.011C0.315,0.004 0.281,0.012 0.246,0.012ZM0.268,-0.054C0.296,-0.054 0.324,-0.06 0.351,-0.073C0.378,-0.085 0.405,-0.103 0.433,-0.126L0.433,-0.254C0.381,-0.25 0.337,-0.244 0.303,-0.237C0.268,-0.23 0.24,-0.221 0.219,-0.211C0.198,-0.2 0.183,-0.189 0.174,-0.176C0.165,-0.163 0.161,-0.148 0.161,-0.132C0.161,-0.118 0.164,-0.106 0.17,-0.097C0.176,-0.087 0.184,-0.079 0.194,-0.073C0.203,-0.066 0.215,-0.062 0.228,-0.059C0.241,-0.056 0.254,-0.054 0.268,-0.054Z" style="fill:white;fill-rule:nonzero;"/>
                </g>
                <g transform="matrix(83.3333,0,0,83.3333,213.156,133.04)">
                    <path d="M0.316,-0L0.316,-0.419L0.09,-0.419L0.09,-0.486L0.398,-0.486L0.398,-0L0.316,-0ZM0.348,-0.588C0.329,-0.588 0.314,-0.594 0.301,-0.606C0.288,-0.617 0.282,-0.633 0.282,-0.652C0.282,-0.671 0.288,-0.687 0.301,-0.699C0.314,-0.71 0.329,-0.716 0.348,-0.716C0.367,-0.716 0.382,-0.71 0.395,-0.699C0.408,-0.687 0.414,-0.671 0.414,-0.652C0.414,-0.633 0.408,-0.617 0.395,-0.606C0.382,-0.594 0.367,-0.588 0.348,-0.588Z" style="fill:white;fill-rule:nonzero;"/>
                </g>
                <g transform="matrix(83.3333,0,0,83.3333,253.156,133.04)">
                    <path d="M0.093,-0L0.093,-0.486L0.161,-0.486L0.168,-0.403L0.172,-0.403C0.197,-0.43 0.225,-0.453 0.254,-0.471C0.283,-0.489 0.317,-0.498 0.355,-0.498C0.413,-0.498 0.456,-0.482 0.483,-0.449C0.509,-0.416 0.523,-0.367 0.523,-0.302L0.523,-0L0.441,-0L0.441,-0.291C0.441,-0.337 0.432,-0.371 0.415,-0.394C0.398,-0.416 0.369,-0.427 0.329,-0.427C0.314,-0.427 0.301,-0.425 0.289,-0.422C0.276,-0.418 0.264,-0.412 0.252,-0.405C0.24,-0.398 0.228,-0.389 0.215,-0.378C0.202,-0.367 0.189,-0.354 0.175,-0.339L0.175,-0L0.093,-0Z" style="fill:white;fill-rule:nonzero;"/>
                </g>
            </g>
            <g transform="matrix(1,0,0,1,27.9965,-37.5655)">
                <rect x="418.121" y="141.335" width="9.999" height="9.999" style="fill:rgb(0,168,255);"/>
            </g>
        </g>
    </g>
</svg>
