<?xml version="1.0" encoding="UTF-8" standalone="no"?>
<svg
   width="515.14948"
   height="230.03622"
   viewBox="0 0 515.14948 230.03622"
   version="1.1"
   xml:space="preserve"
   style="clip-rule:evenodd;fill-rule:evenodd;stroke-linejoin:round;stroke-miterlimit:2"
   id="svg1133"
   xmlns="http://www.w3.org/2000/svg"
   xmlns:svg="http://www.w3.org/2000/svg"><defs
   id="defs1137">
        
        <clipPath
   id="_clip1">
            <rect
   x="5"
   y="35.019001"
   width="452.147"
   height="229.963"
   id="rect1109" />
        </clipPath>
        
    </defs>
    
<rect
   x="0"
   y="0"
   width="416.52878"
   height="230"
   style="clip-rule:evenodd;fill:none;fill-rule:evenodd;stroke-width:0.959881;stroke-linejoin:round;stroke-miterlimit:2"
   id="rect59099" /><g
   transform="matrix(0.9070259,0,0,0.90709638,-24.144708,-26.085162)"
   id="g59103"
   style="clip-rule:evenodd;fill-rule:evenodd;stroke-linejoin:round;stroke-miterlimit:2"><path
     d="m 280.196,92.171 c 0,-34.988 -28.406,-63.394 -63.394,-63.394 H 90.014 c -34.988,0 -63.394,28.406 -63.394,63.394 v 126.788 c 0,34.988 28.406,63.394 63.394,63.394 h 126.788 c 34.988,0 63.394,-28.406 63.394,-63.394 z"
     style="fill:#00a8ff"
     id="path59101" /></g><rect
   style="clip-rule:evenodd;fill:#00a8ff;fill-opacity:1;fill-rule:evenodd;stroke-width:4.5;stroke-linejoin:round;stroke-miterlimit:2"
   id="rect59105"
   width="15"
   height="15"
   x="500.14948"
   y="75" /><path
   d="m 267.82921,91.311998 q -6.23198,0 -11.58929,-1.85866 -5.24799,-1.85866 -9.18398,-5.35732 -3.93598,-3.60799 -6.12264,-8.74664 -2.18666,-5.24798 -2.18666,-11.80796 0,-6.66932 2.29599,-11.80797 2.40532,-5.24798 6.45065,-8.85597 4.04532,-3.60799 9.40263,-5.46665 5.46665,-1.85866 11.47997,-1.85866 6.55998,0 11.2613,2.29599 4.81065,2.29599 8.09064,5.46665 l -4.48265,5.79465 q -3.27999,-2.84266 -6.88798,-4.48265 -3.49866,-1.64 -7.65331,-1.64 -4.59199,0 -8.41864,1.53066 -3.82666,1.42133 -6.55998,4.15466 -2.624,2.73332 -4.15466,6.55998 -1.53066,3.71732 -1.53066,8.30931 0,4.59198 1.42133,8.3093 1.53066,3.71733 4.15465,6.45065 2.73333,2.62399 6.45065,4.15466 3.82666,1.42132 8.41864,1.42132 4.91999,0 8.96531,-1.85866 4.15465,-1.96799 7.43464,-4.81065 l 4.04532,5.79465 q -4.48265,3.93599 -9.83997,6.12265 -5.35731,2.18666 -11.2613,2.18666 z"
   style="font-size:109.333px;line-height:1.25;font-family:'Source Code Pro';-inkscape-font-specification:'Source Code Pro, Normal';letter-spacing:-9.12px;fill:#f6f6f6;fill-opacity:1"
   id="path59197" /><path
   d="m 296.60506,89.999998 v -77.84509 h 8.9653 v 21.2106 l -0.54666,12.57329 h 0.328 q 4.15465,-4.48265 8.85597,-7.43464 4.81065,-2.95199 11.04263,-2.95199 9.51197,0 13.88529,5.46665 4.48266,5.35732 4.48266,15.96262 v 33.01856 h -8.96531 v -31.8159 q 0,-7.54398 -2.84266,-11.15197 -2.84266,-3.71732 -9.40264,-3.71732 -2.40532,0 -4.48265,0.656 -1.96799,0.54666 -3.93599,1.74933 -1.96799,1.20266 -4.04532,3.06132 -2.07732,1.74933 -4.37332,4.15466 v 37.06388 z"
   style="font-size:109.333px;line-height:1.25;font-family:'Source Code Pro';-inkscape-font-specification:'Source Code Pro, Normal';letter-spacing:-9.12px;fill:#f6f6f6;fill-opacity:1"
   id="path59199" /><path
   d="m 369.7701,91.311998 q -3.71733,0 -6.99732,-1.09333 -3.27999,-0.984 -5.79464,-2.84266 -2.40533,-1.96799 -3.82666,-4.70132 -1.42133,-2.84266 -1.42133,-6.45065 0,-4.48265 2.07733,-7.76264 2.18666,-3.38932 6.77864,-5.79465 4.70132,-2.40532 12.02663,-3.93599 7.32532,-1.53066 17.60262,-2.40532 -0.10934,-2.73333 -0.87467,-5.13865 -0.76533,-2.40533 -2.40532,-4.15466 -1.64,-1.85866 -4.37332,-2.95199 -2.62399,-1.09333 -6.45065,-1.09333 -5.24798,0 -10.05864,2.07733 -4.81065,1.96799 -8.52797,4.26399 l -3.49866,-6.12265 q 1.968,-1.312 4.59199,-2.62399 2.73333,-1.42133 5.68532,-2.51466 3.06132,-1.09333 6.45064,-1.74933 3.38933,-0.76533 6.88798,-0.76533 10.9333,0 16.18129,6.01331 5.35731,5.90399 5.35731,15.85329 v 32.58123 h -7.32531 l -0.76533,-7.21598 h -0.328 q -4.48265,3.49866 -9.9493,6.01332 -5.35732,2.51466 -11.04263,2.51466 z m 2.40532,-7.21598 q 4.59199,0 8.96531,-1.96799 4.48265,-2.07733 9.07464,-5.90399 v -13.99462 q -8.52798,0.656 -14.32263,1.85866 -5.68531,1.20266 -9.18397,2.95199 -3.38932,1.64 -4.81065,3.82666 -1.42133,2.07732 -1.42133,4.70132 0,2.29599 0.984,3.93598 0.984,1.53067 2.51466,2.624 1.63999,0.98399 3.71732,1.53066 2.18666,0.43733 4.48265,0.43733 z"
   style="font-size:109.333px;line-height:1.25;font-family:'Source Code Pro';-inkscape-font-specification:'Source Code Pro, Normal';letter-spacing:-9.12px;fill:#f6f6f6;fill-opacity:1"
   id="path59201" /><path
   d="m 419.99998,89.999998 v -45.81052 h -12.85051 v -7.32532 h 21.81582 v 53.13584 z m 3.49866,-64.2878 c -2.04089,0 -3.75377,-0.61955 -5.13865,-1.85866 -1.38489,-1.312 -2.07733,-3.02488 -2.07733,-5.13865 0,-2.11377 0.69244,-3.79021 2.07733,-5.02932 1.38488,-1.312 3.09776,-1.968 5.13865,-1.968 2.04088,0 3.75376,0.656 5.13865,1.968 1.38489,1.23911 2.07733,2.91555 2.07733,5.02932 0,2.11377 -0.69244,3.82665 -2.07733,5.13865 -1.38489,1.23911 -3.09777,1.85866 -5.13865,1.85866 z"
   style="font-size:109.333px;line-height:1.25;font-family:'Source Code Pro';-inkscape-font-specification:'Source Code Pro, Normal';letter-spacing:-9.12px;fill:#f6f6f6;fill-opacity:1"
   id="path59203" /><path
   d="m 444.25582,89.999998 v -53.13584 h 7.43465 l 0.76533,9.07464 h 0.43733 q 4.15466,-4.48265 8.96531,-7.43464 4.81065,-2.95199 11.04263,-2.95199 9.51197,0 13.88529,5.46665 4.48265,5.35732 4.48265,15.96262 v 33.01856 h -8.9653 v -31.8159 q 0,-7.54398 -2.84266,-11.15197 -2.84266,-3.71732 -9.40264,-3.71732 -2.40532,0 -4.48265,0.656 -1.96799,0.54666 -3.93599,1.74933 -1.96799,1.20266 -4.04532,3.06132 -2.07733,1.74933 -4.37332,4.15466 v 37.06388 z"
   style="font-size:109.333px;line-height:1.25;font-family:'Source Code Pro';-inkscape-font-specification:'Source Code Pro, Normal';letter-spacing:-9.12px;fill:#f6f6f6;fill-opacity:1"
   id="path59205" /><path
   d="m 56.367906,146.04438 q -8.655912,0 -15.989393,-2.64486 -7.333481,-2.76508 -12.743426,-6.49193 l 4.568398,-6.49194 q 5.049282,3.60663 11.060332,5.77061 6.131271,2.16398 14.306299,2.16398 7.453702,0 11.060332,-2.64486 3.726851,-2.76508 3.726851,-6.49194 0,-1.68309 -0.601105,-3.12574 -0.601105,-1.44265 -2.644862,-2.76508 -1.923536,-1.32244 -5.530166,-2.52465 -3.60663,-1.20221 -9.497459,-2.40442 -11.420995,-2.40442 -17.191603,-6.37171 -5.650387,-4.08751 -5.650387,-10.69967 0,-3.486412 1.562873,-6.491932 1.562873,-3.12575 4.568398,-5.28973 3.125746,-2.28419 7.573923,-3.4864 4.568398,-1.32244 10.579448,-1.32244 6.732376,0 12.983868,2.2842 6.251492,2.16398 10.579448,5.16951 l -4.80884,6.37171 q -4.087514,-2.76508 -9.016575,-4.44818 -4.929061,-1.68309 -10.579448,-1.68309 -7.453702,0 -10.459227,2.52464 -3.005525,2.52464 -3.005525,5.890832 0,3.84707 3.967293,5.89083 3.967293,1.92353 12.983868,3.84707 7.333481,1.56287 12.0221,3.36619 4.688619,1.68309 7.333481,3.84707 2.765083,2.16398 3.726851,4.80884 1.081989,2.64486 1.081989,6.01105 0,3.60663 -1.683094,6.73238 -1.683094,3.12574 -5.049282,5.53016 -3.245967,2.40442 -8.175028,3.72685 -4.80884,1.44265 -11.060332,1.44265 z"
   id="path59115"
   style="font-size:120.221px;line-height:1.25;font-family:'Source Code Pro';-inkscape-font-specification:'Source Code Pro, Normal';letter-spacing:-11.7591px;word-spacing:-0.308067px;fill:#f6f6f6;stroke:#f6f6f6;stroke-width:4.351" /><path
   d="M 112.27109,144.60173 V 94.229128 H 94.855301 v -8.0548 h 27.273909 v 58.427402 z m 3.84707,-70.689952 c -2.24413,0 -4.12759,-0.68125 -5.65039,-2.04375 -1.5228,-1.44265 -2.2842,-3.32612 -2.2842,-5.65039 0,-2.32427 0.7614,-4.16766 2.2842,-5.53017 1.5228,-1.44265 3.40626,-2.16397 5.65039,-2.16397 2.24412,0 4.12759,0.72132 5.65038,2.16397 1.5228,1.36251 2.2842,3.2059 2.2842,5.53017 0,2.32427 -0.7614,4.20774 -2.2842,5.65039 -1.52279,1.3625 -3.40626,2.04375 -5.65038,2.04375 z"
   id="path59117"
   style="font-size:120.221px;line-height:1.25;font-family:'Source Code Pro';-inkscape-font-specification:'Source Code Pro, Normal';letter-spacing:-11.7591px;word-spacing:-0.308067px;fill:#f6f6f6;stroke:#f6f6f6;stroke-width:4.351" /><path
   d="m 167.31181,171.53124 q -12.86365,0 -19.95669,-4.20774 -6.97282,-4.20773 -6.97282,-12.0221 0,-3.48641 2.40442,-6.8526 2.52464,-3.36618 7.21326,-6.13127 v -0.48088 q -2.40442,-1.32243 -4.20773,-3.60663 -1.80332,-2.2842 -1.80332,-6.01105 0,-2.76508 1.80332,-5.65039 1.80331,-3.00552 5.1695,-5.28972 v -0.48089 q -3.00552,-2.28419 -5.1695,-6.01105 -2.04376,-3.84707 -2.04376,-9.13679 0,-4.80884 1.80332,-8.655912 1.92353,-3.84708 5.04928,-6.49194 3.12574,-2.76508 7.21326,-4.20773 4.20773,-1.56288 8.89635,-1.56288 4.80884,0 8.65591,1.44266 h 24.16443 v 8.0548 h -15.14785 q 2.04376,2.04376 3.48641,5.16951 1.44265,3.125742 1.44265,6.612152 0,4.68862 -1.80331,8.41547 -1.6831,3.72685 -4.80884,6.37171 -3.00553,2.52465 -7.21326,3.9673 -4.08752,1.32243 -8.77614,1.32243 -2.2842,0 -4.92906,-0.48089 -2.52464,-0.6011 -4.92906,-1.68309 -4.5684,2.8853 -4.5684,6.73238 0,3.48641 3.12575,5.1695 3.24597,1.56287 9.01657,1.56287 h 13.10409 q 11.30078,0 16.71072,3.12575 5.53017,3.12574 5.53017,10.57945 0,4.08751 -2.2842,7.81436 -2.2842,3.72685 -6.49194,6.49194 -4.20773,2.76508 -10.21878,4.44817 -6.01105,1.6831 -13.46475,1.6831 z m -0.60111,-52.0557 q 5.65039,0 9.49746,-3.72685 3.96729,-3.72685 3.96729,-10.09856 0,-3.00553 -1.08198,-5.53017 -1.08199,-2.524642 -2.88531,-4.327952 -1.80331,-1.80332 -4.32795,-2.76509 -2.40442,-1.08199 -5.16951,-1.08199 -2.76508,0 -5.28972,1.08199 -2.40442,0.96177 -4.20774,2.76509 -1.80331,1.80331 -2.8853,4.327952 -1.08199,2.52464 -1.08199,5.53017 0,6.37171 3.96729,10.09856 3.9673,3.72685 9.49746,3.72685 z m 1.32243,44.84244 q 5.04929,0 9.1368,-0.96177 4.08751,-0.96177 6.97282,-2.64486 2.8853,-1.56288 4.32795,-3.72685 1.56288,-2.04376 1.56288,-4.32796 0,-4.20774 -3.36619,-5.65039 -3.24597,-1.44265 -9.97834,-1.44265 h -11.421 q -2.52464,0 -4.80884,-0.24044 -2.16398,-0.12022 -4.08751,-0.72133 -4.20774,2.2842 -5.89083,4.68862 -1.56288,2.52464 -1.56288,5.04928 0,4.5684 4.80884,7.21326 4.92907,2.76509 14.3063,2.76509 z"
   id="path59119"
   style="font-size:120.221px;line-height:1.25;font-family:'Source Code Pro';-inkscape-font-specification:'Source Code Pro, Normal';letter-spacing:-11.7591px;word-spacing:-0.308067px;fill:#f6f6f6;stroke:#f6f6f6;stroke-width:4.351" /></svg>
