<?xml version="1.0" encoding="UTF-8" standalone="no"?>
<svg
   width="574.99994"
   height="230.03622"
   viewBox="0 0 574.99995 230.03622"
   version="1.1"
   xml:space="preserve"
   style="clip-rule:evenodd;fill-rule:evenodd;stroke-linejoin:round;stroke-miterlimit:2"
   id="svg1133"
   xmlns="http://www.w3.org/2000/svg"
   xmlns:svg="http://www.w3.org/2000/svg"><defs
   id="defs1137">
        
        <clipPath
   id="_clip1">
            <rect
   x="5"
   y="35.019001"
   width="452.147"
   height="229.963"
   id="rect1109" />
        </clipPath>
        
    </defs>
    
<rect
   x="0"
   y="0"
   width="416.52878"
   height="230"
   style="clip-rule:evenodd;fill:none;fill-rule:evenodd;stroke-width:0.959881;stroke-linejoin:round;stroke-miterlimit:2"
   id="rect59099" /><g
   transform="matrix(0.9070259,0,0,0.90709638,-24.144705,-26.085159)"
   id="g59103"
   style="clip-rule:evenodd;fill-rule:evenodd;stroke-linejoin:round;stroke-miterlimit:2"><path
     d="m 280.196,92.171 c 0,-34.988 -28.406,-63.394 -63.394,-63.394 H 90.014 c -34.988,0 -63.394,28.406 -63.394,63.394 v 126.788 c 0,34.988 28.406,63.394 63.394,63.394 h 126.788 c 34.988,0 63.394,-28.406 63.394,-63.394 z"
     style="fill:#00a8ff"
     id="path59101" /></g><rect
   style="clip-rule:evenodd;fill:#00a8ff;fill-opacity:1;fill-rule:evenodd;stroke-width:4.5;stroke-linejoin:round;stroke-miterlimit:2"
   id="rect59105"
   width="15"
   height="15"
   x="559.99994"
   y="73.409058" /><path
   d="m 56.367905,146.04438 q -8.65591,0 -15.98939,-2.64486 -7.33348,-2.76508 -12.74343,-6.49193 l 4.5684,-6.49194 q 5.04928,3.60663 11.06033,5.77061 6.13127,2.16398 14.3063,2.16398 7.4537,0 11.06033,-2.64486 3.72685,-2.76508 3.72685,-6.49194 0,-1.68309 -0.6011,-3.12574 -0.60111,-1.44265 -2.64486,-2.76508 -1.92354,-1.32244 -5.53017,-2.52465 -3.60663,-1.20221 -9.49746,-2.40442 -11.42099,-2.40442 -17.1916,-6.37171 -5.65039,-4.08751 -5.65039,-10.69967 0,-3.486409 1.56287,-6.491929 1.56288,-3.12575 4.5684,-5.28973 3.12575,-2.28419 7.57393,-3.4864 4.56839,-1.32244 10.57944,-1.32244 6.73238,0 12.98387,2.2842 6.25149,2.16398 10.57945,5.16951 l -4.80884,6.37171 q -4.08751,-2.76508 -9.01658,-4.44818 -4.92906,-1.68309 -10.57944,-1.68309 -7.45371,0 -10.45923,2.52464 -3.00553,2.52464 -3.00553,5.890829 0,3.84707 3.9673,5.89083 3.96729,1.92353 12.98387,3.84707 7.33348,1.56287 12.0221,3.36619 4.68861,1.68309 7.33348,3.84707 2.76508,2.16398 3.72685,4.80884 1.08199,2.64486 1.08199,6.01105 0,3.60663 -1.6831,6.73238 -1.68309,3.12574 -5.04928,5.53016 -3.24597,2.40442 -8.17503,3.72685 -4.80884,1.44265 -11.06033,1.44265 z"
   id="path59115"
   style="font-size:120.221px;line-height:1.25;font-family:'Source Code Pro';-inkscape-font-specification:'Source Code Pro, Normal';letter-spacing:-11.7591px;word-spacing:-0.308067px;fill:#f6f6f6;stroke:#f6f6f6;stroke-width:4.351" /><path
   d="M 112.27109,144.60173 V 94.229131 H 94.855305 v -8.0548 h 27.273905 v 58.427399 z m 3.84707,-70.689949 c -2.24413,0 -4.12759,-0.68125 -5.65039,-2.04375 -1.5228,-1.44265 -2.2842,-3.32612 -2.2842,-5.65039 0,-2.32427 0.7614,-4.16766 2.2842,-5.53017 1.5228,-1.44265 3.40626,-2.16397 5.65039,-2.16397 2.24412,0 4.12759,0.72132 5.65038,2.16397 1.5228,1.36251 2.2842,3.2059 2.2842,5.53017 0,2.32427 -0.7614,4.20774 -2.2842,5.65039 -1.52279,1.3625 -3.40626,2.04375 -5.65038,2.04375 z"
   id="path59117"
   style="font-size:120.221px;line-height:1.25;font-family:'Source Code Pro';-inkscape-font-specification:'Source Code Pro, Normal';letter-spacing:-11.7591px;word-spacing:-0.308067px;fill:#f6f6f6;stroke:#f6f6f6;stroke-width:4.351" /><path
   d="m 167.31181,171.53124 q -12.86365,0 -19.95669,-4.20774 -6.97282,-4.20773 -6.97282,-12.0221 0,-3.48641 2.40442,-6.8526 2.52464,-3.36618 7.21326,-6.13127 v -0.48088 q -2.40442,-1.32243 -4.20773,-3.60663 -1.80332,-2.2842 -1.80332,-6.01105 0,-2.76508 1.80332,-5.65039 1.80331,-3.00552 5.1695,-5.28972 v -0.48089 q -3.00552,-2.28419 -5.1695,-6.01105 -2.04376,-3.84707 -2.04376,-9.13679 0,-4.80884 1.80332,-8.655909 1.92353,-3.84708 5.04928,-6.49194 3.12574,-2.76508 7.21326,-4.20773 4.20773,-1.56288 8.89635,-1.56288 4.80884,0 8.65591,1.44266 h 24.16443 v 8.0548 h -15.14785 q 2.04376,2.04376 3.48641,5.16951 1.44265,3.125739 1.44265,6.612149 0,4.68862 -1.80331,8.41547 -1.6831,3.72685 -4.80884,6.37171 -3.00553,2.52465 -7.21326,3.9673 -4.08752,1.32243 -8.77614,1.32243 -2.2842,0 -4.92906,-0.48089 -2.52464,-0.6011 -4.92906,-1.68309 -4.5684,2.8853 -4.5684,6.73238 0,3.48641 3.12575,5.1695 3.24597,1.56287 9.01657,1.56287 h 13.10409 q 11.30078,0 16.71072,3.12575 5.53017,3.12574 5.53017,10.57945 0,4.08751 -2.2842,7.81436 -2.2842,3.72685 -6.49194,6.49194 -4.20773,2.76508 -10.21878,4.44817 -6.01105,1.6831 -13.46475,1.6831 z m -0.60111,-52.0557 q 5.65039,0 9.49746,-3.72685 3.96729,-3.72685 3.96729,-10.09856 0,-3.00553 -1.08198,-5.53017 -1.08199,-2.524639 -2.88531,-4.327949 -1.80331,-1.80332 -4.32795,-2.76509 -2.40442,-1.08199 -5.16951,-1.08199 -2.76508,0 -5.28972,1.08199 -2.40442,0.96177 -4.20774,2.76509 -1.80331,1.80331 -2.8853,4.327949 -1.08199,2.52464 -1.08199,5.53017 0,6.37171 3.96729,10.09856 3.9673,3.72685 9.49746,3.72685 z m 1.32243,44.84244 q 5.04929,0 9.1368,-0.96177 4.08751,-0.96177 6.97282,-2.64486 2.8853,-1.56288 4.32795,-3.72685 1.56288,-2.04376 1.56288,-4.32796 0,-4.20774 -3.36619,-5.65039 -3.24597,-1.44265 -9.97834,-1.44265 h -11.421 q -2.52464,0 -4.80884,-0.24044 -2.16398,-0.12022 -4.08751,-0.72133 -4.20774,2.2842 -5.89083,4.68862 -1.56288,2.52464 -1.56288,5.04928 0,4.5684 4.80884,7.21326 4.92907,2.76509 14.3063,2.76509 z"
   id="path59119"
   style="font-size:120.221px;line-height:1.25;font-family:'Source Code Pro';-inkscape-font-specification:'Source Code Pro, Normal';letter-spacing:-11.7591px;word-spacing:-0.308067px;fill:#f6f6f6;stroke:#f6f6f6;stroke-width:4.351" /><g
   aria-label="ledger"
   id="text63950"
   style="font-size:109.333px;line-height:1.25;letter-spacing:-9.12px"
   transform="translate(-4.6289063e-6,135.37513)"><path
     d="m 265.41384,-44.95826 q -8.52797,0 -13.01062,-4.810652 -4.48266,-4.810652 -4.48266,-14.322623 v -52.698505 h -18.9146 v -7.32531 h 27.87991 v 60.679813 q 0,5.903982 2.84266,8.527974 2.84266,2.514659 7.65331,2.514659 4.70132,0 9.9493,-2.405326 l 2.29599,6.669313 q -3.71732,1.530662 -6.77864,2.295993 -3.06133,0.874664 -7.43465,0.874664 z"
     style="font-family:'Source Code Pro';-inkscape-font-specification:'Source Code Pro, Normal'"
     id="path74845" /><path
     d="m 313.4323,-44.95826 q -6.01332,0 -11.2613,-1.858661 -5.13865,-1.858661 -9.07464,-5.46665 -3.82666,-3.607989 -6.12265,-8.74664 -2.18666,-5.247984 -2.18666,-11.917297 0,-6.450647 2.18666,-11.589298 2.29599,-5.138651 6.01331,-8.74664 3.82666,-3.607989 8.63731,-5.46665 4.91999,-1.967994 10.2773,-1.967994 5.68532,0 10.16797,1.858661 4.59199,1.749328 7.65331,5.029318 3.17066,3.27999 4.81065,7.871976 1.64,4.591986 1.64,10.167969 0,1.530662 -0.10933,2.951991 -0.10934,1.421329 -0.328,2.514659 h -41.87454 q 0.87466,9.074639 6.55998,13.666625 5.79465,4.482653 14.10396,4.482653 4.81065,0 8.6373,-1.311996 3.93599,-1.421329 7.54398,-3.717322 l 3.27999,5.903982 q -3.93599,2.623992 -9.07464,4.482653 -5.02932,1.858661 -11.47996,1.858661 z m -1.312,-48.653185 q -3.27999,0 -6.34131,1.09333 -2.952,1.09333 -5.35732,3.170657 -2.40533,1.967994 -4.04532,5.029318 -1.64,3.061324 -2.296,6.997312 h 33.89323 q -0.54666,-8.199975 -4.81065,-12.245296 -4.15465,-4.045321 -11.04263,-4.045321 z"
     style="font-family:'Source Code Pro';-inkscape-font-specification:'Source Code Pro, Normal'"
     id="path74847" /><path
     d="m 363.41874,-44.95826 q -5.24798,0 -9.51197,-1.858661 -4.15465,-1.858661 -7.21598,-5.357317 -3.06132,-3.607989 -4.70132,-8.74664 -1.63999,-5.138651 -1.63999,-11.807964 0,-6.450647 1.96799,-11.589298 2.07733,-5.247984 5.35732,-8.855973 3.38932,-3.607989 7.76264,-5.575983 4.37332,-1.967994 9.07464,-1.967994 4.81065,0 8.52797,1.858661 3.82666,1.749328 7.32532,5.029318 h 0.32799 l -0.43733,-9.839969 v -20.44527 h 8.96531 v 77.845094 h -7.43465 l -0.76533,-6.997312 h -0.328 q -3.27999,3.389323 -7.87197,5.903982 -4.48265,2.405326 -9.40264,2.405326 z m 1.85866,-7.543977 q 7.87198,0 14.97862,-7.981309 v -26.458586 q -3.60799,-3.389323 -7.10664,-4.810652 -3.38933,-1.421329 -6.88798,-1.421329 -3.49866,0 -6.55998,1.530662 -2.95199,1.421329 -5.24799,4.154654 -2.18666,2.623992 -3.49865,6.341314 -1.312,3.717322 -1.312,8.309308 0,9.621304 4.04532,14.978621 4.15466,5.357317 11.5893,5.357317 z"
     style="font-family:'Source Code Pro';-inkscape-font-specification:'Source Code Pro, Normal'"
     id="path74849" /><path
     d="m 422.58916,-21.779664 q -11.69863,0 -18.14928,-3.826655 -6.34131,-3.826655 -6.34131,-10.9333 0,-3.170657 2.18666,-6.231981 2.29599,-3.061324 6.55998,-5.575983 v -0.437332 q -2.18666,-1.202663 -3.82666,-3.27999 -1.63999,-2.077327 -1.63999,-5.46665 0,-2.514659 1.63999,-5.138651 1.64,-2.733325 4.70132,-4.810652 v -0.437332 q -2.73332,-2.077327 -4.70132,-5.46665 -1.85866,-3.498656 -1.85866,-8.309308 0,-4.37332 1.64,-7.871976 1.74933,-3.498656 4.59198,-5.903982 2.84266,-2.514659 6.55998,-3.826655 3.82666,-1.421329 8.09065,-1.421329 4.37332,0 7.87197,1.311996 h 21.97594 v 7.325311 h -13.77596 q 1.85866,1.858661 3.17065,4.701319 1.312,2.842658 1.312,6.013315 0,4.263987 -1.63999,7.65331 -1.53067,3.389323 -4.37332,5.794649 -2.73333,2.295993 -6.55998,3.607989 -3.71733,1.202663 -7.98131,1.202663 -2.07733,0 -4.48266,-0.437332 -2.29599,-0.546665 -4.48265,-1.530662 -4.15465,2.623992 -4.15465,6.122648 0,3.170657 2.84265,4.701319 2.952,1.421329 8.19998,1.421329 h 11.9173 q 10.2773,0 15.19728,2.842658 5.02932,2.842658 5.02932,9.621304 0,3.717322 -2.07733,7.106645 -2.07732,3.389323 -5.90398,5.903982 -3.82665,2.514659 -9.2933,4.045321 -5.46665,1.530662 -12.2453,1.530662 z m -0.54666,-47.341189 q 5.13865,0 8.6373,-3.389323 3.60799,-3.389323 3.60799,-9.183972 0,-2.733325 -0.98399,-5.029318 -0.984,-2.295993 -2.624,-3.935988 -1.63999,-1.639995 -3.93598,-2.514659 -2.18666,-0.983997 -4.70132,-0.983997 -2.51466,0 -4.81066,0.983997 -2.18666,0.874664 -3.82665,2.514659 -1.64,1.639995 -2.62399,3.935988 -0.984,2.295993 -0.984,5.029318 0,5.794649 3.60799,9.183972 3.60799,3.389323 8.63731,3.389323 z m 1.20266,40.781209 q 4.59199,0 8.30931,-0.874664 3.71732,-0.874664 6.34131,-2.405326 2.62399,-1.421329 3.93599,-3.389323 1.42133,-1.858661 1.42133,-3.935988 0,-3.826655 -3.06133,-5.138651 -2.95199,-1.311996 -9.07463,-1.311996 H 420.7305 q -2.29599,0 -4.37332,-0.218666 -1.96799,-0.109333 -3.71732,-0.655998 -3.82666,2.077327 -5.35732,4.263987 -1.42133,2.295993 -1.42133,4.591986 0,4.154654 4.37332,6.55998 4.48266,2.514659 13.01063,2.514659 z"
     style="font-family:'Source Code Pro';-inkscape-font-specification:'Source Code Pro, Normal'"
     id="path74851" /><path
     d="m 482.74357,-44.95826 q -6.01331,0 -11.2613,-1.858661 -5.13865,-1.858661 -9.07464,-5.46665 -3.82665,-3.607989 -6.12264,-8.74664 -2.18666,-5.247984 -2.18666,-11.917297 0,-6.450647 2.18666,-11.589298 2.29599,-5.138651 6.01331,-8.74664 3.82666,-3.607989 8.63731,-5.46665 4.91998,-1.967994 10.2773,-1.967994 5.68532,0 10.16797,1.858661 4.59198,1.749328 7.65331,5.029318 3.17066,3.27999 4.81065,7.871976 1.64,4.591986 1.64,10.167969 0,1.530662 -0.10934,2.951991 -0.10933,1.421329 -0.328,2.514659 h -41.87454 q 0.87467,9.074639 6.55998,13.666625 5.79465,4.482653 14.10396,4.482653 4.81065,0 8.63731,-1.311996 3.93599,-1.421329 7.54398,-3.717322 l 3.27999,5.903982 q -3.93599,2.623992 -9.07464,4.482653 -5.02932,1.858661 -11.47997,1.858661 z m -1.31199,-48.653185 q -3.27999,0 -6.34132,1.09333 -2.95199,1.09333 -5.35732,3.170657 -2.40532,1.967994 -4.04532,5.029318 -1.63999,3.061324 -2.29599,6.997312 h 33.89323 q -0.54666,-8.199975 -4.81065,-12.245296 -4.15466,-4.045321 -11.04263,-4.045321 z"
     style="font-family:'Source Code Pro';-inkscape-font-specification:'Source Code Pro, Normal'"
     id="path74853" /><path
     d="m 519.06339,-46.270256 v -53.135838 h 7.43464 l 0.76533,12.573295 h 0.328 q 4.15466,-6.450647 10.16797,-10.167969 6.12265,-3.717322 13.55729,-3.717322 2.95199,0 5.46665,0.54666 2.51466,0.437337 5.02932,1.64 l -2.07733,7.762643 q -2.84265,-0.983997 -4.81065,-1.421329 -1.85866,-0.437332 -5.02932,-0.437332 -6.01331,0 -11.58929,3.498656 -5.46665,3.389323 -10.27731,11.698631 v 31.159905 z"
     style="font-family:'Source Code Pro';-inkscape-font-specification:'Source Code Pro, Normal'"
     id="path74855" /></g></svg>
